<svg width="45" height="32" viewBox="0 0 45 32" fill="none" xmlns="http://www.w3.org/2000/svg">
<g clip-path="url(#clip0)">
<path d="M42.353 13.3333H13.2353C11.7734 13.3333 10.5883 14.5272 10.5883 16C10.5883 17.4727 11.7734 18.6666 13.2353 18.6666H42.353C43.8149 18.6666 45 17.4727 45 16C45 14.5272 43.8149 13.3333 42.353 13.3333Z" fill="white"/>
<path d="M42.353 0H13.2353C11.7734 0 10.5883 1.19391 10.5883 2.66667C10.5883 4.13943 11.7734 5.33333 13.2353 5.33333H42.353C43.8149 5.33333 45 4.13943 45 2.66667C45 1.19391 43.8149 0 42.353 0Z" fill="white"/>
<path d="M42.353 26.6667H13.2353C11.7734 26.6667 10.5883 27.8606 10.5883 29.3334C10.5883 30.8061 11.7734 32 13.2353 32H42.353C43.8149 32 45 30.8061 45 29.3334C45 27.8606 43.8149 26.6667 42.353 26.6667Z" fill="white"/>
<path d="M2.64706 5.33333C4.10899 5.33333 5.29412 4.13943 5.29412 2.66667C5.29412 1.19391 4.10899 0 2.64706 0C1.18513 0 0 1.19391 0 2.66667C0 4.13943 1.18513 5.33333 2.64706 5.33333Z" fill="white"/>
<path d="M2.64706 5.33333C4.10899 5.33333 5.29412 4.13943 5.29412 2.66667C5.29412 1.19391 4.10899 0 2.64706 0C1.18513 0 0 1.19391 0 2.66667C0 4.13943 1.18513 5.33333 2.64706 5.33333Z" fill="white"/>
<path d="M2.64706 5.33333C4.10899 5.33333 5.29412 4.13943 5.29412 2.66667C5.29412 1.19391 4.10899 0 2.64706 0C1.18513 0 0 1.19391 0 2.66667C0 4.13943 1.18513 5.33333 2.64706 5.33333Z" fill="white"/>
<path d="M2.64706 18.6666C4.10899 18.6666 5.29412 17.4727 5.29412 16C5.29412 14.5272 4.10899 13.3333 2.64706 13.3333C1.18513 13.3333 0 14.5272 0 16C0 17.4727 1.18513 18.6666 2.64706 18.6666Z" fill="white"/>
<path d="M2.64706 18.6666C4.10899 18.6666 5.29412 17.4727 5.29412 16C5.29412 14.5272 4.10899 13.3333 2.64706 13.3333C1.18513 13.3333 0 14.5272 0 16C0 17.4727 1.18513 18.6666 2.64706 18.6666Z" fill="white"/>
<path d="M2.64706 18.6666C4.10899 18.6666 5.29412 17.4727 5.29412 16C5.29412 14.5272 4.10899 13.3333 2.64706 13.3333C1.18513 13.3333 0 14.5272 0 16C0 17.4727 1.18513 18.6666 2.64706 18.6666Z" fill="white"/>
<path d="M2.64706 32C4.10899 32 5.29412 30.8061 5.29412 29.3334C5.29412 27.8606 4.10899 26.6667 2.64706 26.6667C1.18513 26.6667 0 27.8606 0 29.3334C0 30.8061 1.18513 32 2.64706 32Z" fill="white"/>
<path d="M2.64706 32C4.10899 32 5.29412 30.8061 5.29412 29.3334C5.29412 27.8606 4.10899 26.6667 2.64706 26.6667C1.18513 26.6667 0 27.8606 0 29.3334C0 30.8061 1.18513 32 2.64706 32Z" fill="white"/>
<path d="M2.64706 32C4.10899 32 5.29412 30.8061 5.29412 29.3334C5.29412 27.8606 4.10899 26.6667 2.64706 26.6667C1.18513 26.6667 0 27.8606 0 29.3334C0 30.8061 1.18513 32 2.64706 32Z" fill="white"/>
</g>
<defs>
<clipPath id="clip0">
<rect width="45" height="32" fill="white"/>
</clipPath>
</defs>
</svg>
