<svg width="100" height="106" viewBox="0 0 100 106" fill="none" xmlns="http://www.w3.org/2000/svg">
<rect y="6" width="100" height="100" fill="#2A2A2A"/>
<path d="M26.0274 29.592C32.4114 29.592 37.1154 30.816 40.1394 33.264C43.2114 35.664 44.7474 39.312 44.7474 44.208C44.7474 46.944 44.2434 49.224 43.2354 51.048C42.2274 52.872 40.9314 54.336 39.3474 55.44C37.8114 56.496 36.1794 57.336 34.4514 57.96L48.5634 81H41.0034L28.5474 59.76H18.3234V81H11.8434V29.592H26.0274ZM25.6674 35.208H18.3234V54.288H26.0274C30.2034 54.288 33.2514 53.472 35.1714 51.84C37.0914 50.16 38.0514 47.712 38.0514 44.496C38.0514 41.136 37.0434 38.76 35.0274 37.368C33.0114 35.928 29.8914 35.208 25.6674 35.208ZM78.6644 34.56C73.1444 34.56 68.8004 36.408 65.6324 40.104C62.4644 43.8 60.8804 48.864 60.8804 55.296C60.8804 61.68 62.3444 66.744 65.2724 70.488C68.2484 74.184 72.6884 76.032 78.5924 76.032C80.8484 76.032 82.9844 75.84 85.0004 75.456C87.0164 75.072 88.9844 74.592 90.9044 74.016V79.632C88.9844 80.352 86.9924 80.88 84.9284 81.216C82.9124 81.552 80.4884 81.72 77.6564 81.72C72.4244 81.72 68.0564 80.64 64.5524 78.48C61.0484 76.32 58.4084 73.248 56.6324 69.264C54.9044 65.28 54.0404 60.6 54.0404 55.224C54.0404 50.04 54.9764 45.48 56.8484 41.544C58.7684 37.56 61.5764 34.464 65.2724 32.256C68.9684 30 73.4564 28.872 78.7364 28.872C84.1604 28.872 88.8884 29.88 92.9204 31.896L90.3284 37.368C88.7444 36.648 86.9684 36 85.0004 35.424C83.0804 34.848 80.9684 34.56 78.6644 34.56Z" fill="white"/>
</svg>
